# xmcd
#
# Track frame offsets:
#	182
#	21202
#	41895
#	60232
#	77222
#
# Disc length: 1305 seconds
# Revision: 0
# Processed by: cddbd v1.5.2PL0 Copyright (c) Steve Scherf et al.
# Submitted via: dBpowerAMP V12.0
#
DISCID=37051705
DTITLE=Trilogy - Good Time
DYEAR=1992
DGENRE=Hip-Hop
TTITLE0=Good Time [The Urban Rap Radio Remix Edit]
TTITLE1=Good Time [The Robi-Rob's House Anthem Radio Edit]
TTITLE2=Good Time [The Radio Edit]
TTITLE3=Good Time [The Pop Radio Edit]
TTITLE4=Good Time [Master Mix Radio]
EXTD=
EXTT0=
EXTT1=
EXTT2=
EXTT3=
EXTT4=
PLAYORDER=
